<?xml version="1.0" standalone="no"?>
<!DOCTYPE svg PUBLIC "-//W3C//DTD SVG 20010904//EN"
 "http://www.w3.org/TR/2001/REC-SVG-20010904/DTD/svg10.dtd">
<svg version="1.0" xmlns="http://www.w3.org/2000/svg"
 width="1345.000000pt" height="1343.000000pt" viewBox="0 0 1345.000000 1343.000000"
 preserveAspectRatio="xMidYMid meet">

<g transform="translate(0.000000,1343.000000) scale(0.100000,-0.100000)"
fill="#000000" stroke="none">
<path d="M5857 13094 c-151 -27 -318 -96 -450 -186 -90 -61 -211 -181 -288
-284 -75 -102 -104 -126 -168 -144 -59 -16 -106 -8 -286 47 -134 41 -161 46
-250 47 -90 1 -106 -2 -157 -27 -74 -36 -150 -119 -178 -195 -84 -225 -28
-435 167 -625 114 -112 188 -161 803 -536 251 -153 280 -179 280 -250 0 -213
-289 -734 -582 -1047 -59 -63 -67 -81 -46 -102 24 -24 47 -10 130 77 178 187
367 472 483 730 45 101 95 257 95 298 l0 23 198 -6 c175 -6 557 8 603 22 12 3
19 -9 28 -53 40 -178 154 -344 293 -426 87 -51 164 -69 269 -65 87 3 104 7
170 40 41 21 98 58 127 84 29 25 54 45 56 43 9 -10 127 -335 155 -424 96 -314
140 -569 148 -856 11 -402 -28 -592 -241 -1172 -211 -575 -257 -770 -257
-1087 1 -286 57 -496 188 -693 28 -43 117 -142 219 -244 95 -95 187 -193 205
-219 43 -62 69 -134 69 -188 0 -39 -3 -44 -27 -49 -16 -4 -78 -18 -140 -32
-275 -63 -613 -105 -840 -105 -146 0 -182 11 -206 62 -12 26 -39 256 -102 884
-126 1259 -145 1418 -186 1634 -45 234 -120 475 -197 625 -85 169 -229 346
-361 445 -384 289 -971 291 -1446 5 -395 -237 -703 -616 -980 -1205 -249 -530
-411 -1091 -484 -1680 -17 -134 -41 -403 -41 -457 0 -9 -14 -8 -51 7 -241 91
-369 300 -370 605 -1 156 7 201 96 565 138 565 190 936 202 1425 6 259 -4 393
-37 512 -83 292 -324 477 -567 436 -37 -7 -69 -11 -70 -9 -2 2 150 338 338
747 503 1095 587 1293 724 1704 113 338 135 444 135 657 0 119 -10 152 -51
174 -99 51 -407 -45 -589 -184 -92 -69 -212 -198 -274 -295 -51 -78 -146 -262
-230 -447 -47 -102 -36 -127 -106 245 -66 353 -94 478 -135 601 -46 138 -138
320 -185 365 -71 68 -149 60 -238 -24 -214 -203 -326 -555 -308 -975 15 -352
81 -689 208 -1061 88 -256 167 -434 420 -944 126 -252 228 -465 228 -473 0 -8
-9 -31 -20 -51 -11 -21 -20 -52 -20 -68 0 -33 24 -75 35 -63 4 4 16 3 26 -3
13 -7 35 -4 78 11 75 25 122 25 199 2 115 -37 216 -122 272 -232 75 -148 95
-297 87 -630 -13 -487 -66 -857 -202 -1400 -81 -327 -98 -426 -98 -575 1 -424
219 -686 607 -731 389 -44 1082 -68 1571 -54 530 15 658 28 760 76 115 53 175
135 175 237 0 69 -10 96 -54 145 -43 47 -80 64 -216 98 -131 32 -163 51 -186
109 -16 42 -16 50 0 128 9 45 39 156 66 247 136 445 159 544 167 725 11 233
-55 458 -172 592 l-45 51 44 93 c24 52 58 133 74 180 25 72 29 90 18 104 -7
10 -22 16 -36 13 -21 -3 -31 -19 -70 -123 -26 -66 -56 -142 -68 -168 l-21 -48
-43 25 c-96 55 -258 73 -377 41 -168 -44 -311 -187 -311 -310 0 -147 228 -215
445 -134 102 38 190 108 277 219 l27 35 30 -35 c80 -93 139 -269 148 -440 9
-175 -25 -356 -132 -690 -108 -342 -129 -475 -88 -555 41 -78 86 -104 239
-140 59 -14 116 -31 128 -37 68 -35 97 -102 71 -165 -34 -81 -110 -135 -224
-158 -169 -35 -1164 -51 -1596 -26 -290 16 -609 42 -617 50 -4 3 -3 69 3 146
50 748 235 1434 561 2085 169 338 310 548 506 751 237 247 486 401 762 472
513 133 963 -24 1234 -431 110 -165 182 -341 241 -587 66 -273 76 -358 210
-1685 52 -520 100 -963 106 -985 15 -53 74 -108 133 -125 65 -18 371 -8 579
19 273 36 641 116 659 144 15 24 8 147 -12 203 -33 94 -77 152 -280 359 -217
223 -257 281 -316 453 -45 132 -64 259 -64 432 0 163 16 289 60 465 40 161 67
245 202 615 201 549 238 718 238 1088 0 418 -87 829 -276 1302 l-54 137 40 79
c62 122 81 212 87 399 10 312 -60 827 -151 1105 -75 233 -186 419 -332 560
-181 174 -373 272 -618 315 -108 18 -274 18 -379 -1z m458 -98 c131 -34 298
-117 401 -199 282 -225 430 -559 503 -1142 77 -611 45 -844 -141 -1041 -90
-94 -171 -136 -279 -142 -125 -7 -228 36 -330 140 -70 71 -123 171 -150 284
-30 125 -23 335 15 514 59 272 190 607 334 859 40 69 72 130 72 136 0 16 -22
35 -40 35 -24 0 -40 -21 -115 -153 -207 -364 -349 -806 -362 -1130 -3 -76 -9
-139 -13 -142 -19 -12 -501 -27 -642 -21 l-157 8 -26 44 c-31 53 -28 51 -465
319 -455 279 -517 322 -620 425 -134 133 -190 265 -176 408 13 126 73 228 160
275 34 18 56 22 126 21 71 -2 109 -9 235 -49 130 -41 162 -48 240 -49 137 -1
183 27 305 190 175 232 405 375 687 429 118 22 311 14 438 -19z m-4913 -120
c54 -42 99 -110 126 -191 32 -95 127 -483 165 -675 37 -180 60 -325 126 -800
24 -170 46 -292 58 -319 l19 -44 23 32 c23 32 23 32 12 209 -28 447 54 775
262 1059 133 179 397 372 574 418 70 18 157 20 171 3 20 -25 35 -126 30 -204
-4 -56 -20 -128 -57 -249 -90 -293 -172 -535 -221 -660 -140 -350 -727 -1656
-812 -1807 l-51 -90 -33 39 c-39 45 -193 319 -297 528 -326 655 -520 1345
-521 1850 0 275 40 446 159 686 48 97 67 124 128 182 39 37 76 67 82 67 7 0
32 -15 57 -34z m3231 -4808 c31 -15 57 -33 57 -42 0 -8 -20 -39 -45 -69 -111
-136 -280 -209 -432 -185 -105 16 -137 50 -113 122 14 42 78 117 126 147 71
43 141 59 249 56 83 -2 110 -7 158 -29z"/>
<path d="M7915 12263 c-14 -15 -25 -34 -25 -41 0 -7 -7 -15 -15 -18 -8 -4 -15
-14 -15 -24 0 -10 -7 -23 -15 -30 -8 -7 -15 -21 -15 -31 0 -11 -4 -27 -9 -37
-27 -48 -41 -88 -41 -111 0 -14 -7 -35 -15 -45 -8 -11 -15 -36 -15 -57 0 -20
-7 -53 -15 -72 -19 -46 -19 -169 0 -222 8 -22 15 -56 15 -76 0 -20 7 -50 15
-65 21 -40 21 -187 0 -204 -8 -7 -15 -17 -15 -22 0 -5 -7 -16 -15 -24 -8 -9
-15 -24 -15 -35 0 -10 -4 -19 -10 -19 -5 0 -12 -11 -16 -25 -3 -14 -10 -25
-15 -25 -4 0 -11 -23 -15 -50 -4 -28 -11 -53 -15 -56 -13 -7 -11 -234 2 -291
20 -90 55 -193 80 -233 5 -8 13 -25 19 -37 5 -13 14 -23 20 -23 16 0 12 -86
-5 -100 -8 -7 -15 -28 -15 -47 0 -19 -5 -44 -12 -56 -7 -12 -16 -49 -20 -82
-10 -80 -33 -206 -41 -225 -8 -19 -26 -132 -36 -235 -5 -44 -14 -93 -20 -108
-7 -19 -11 -151 -11 -395 0 -296 3 -376 15 -416 8 -27 15 -76 15 -109 0 -33 4
-74 9 -91 5 -17 15 -60 21 -96 6 -36 16 -97 23 -137 7 -39 15 -75 20 -79 4 -4
7 -30 7 -59 0 -29 6 -59 15 -71 8 -10 15 -39 15 -64 0 -25 7 -54 15 -64 8 -11
15 -39 15 -62 0 -24 4 -45 9 -48 4 -3 11 -33 15 -65 4 -33 11 -63 16 -66 6 -4
10 -22 10 -41 0 -19 7 -51 15 -71 8 -19 15 -50 15 -68 0 -18 6 -38 14 -44 8
-7 16 -31 19 -54 7 -57 26 -138 37 -159 6 -10 10 -32 10 -50 1 -18 7 -44 15
-58 8 -14 14 -39 15 -56 0 -18 7 -45 15 -60 8 -16 15 -45 15 -64 0 -20 4 -40
9 -45 9 -10 24 -80 40 -180 4 -27 13 -63 19 -78 7 -16 12 -43 12 -61 0 -17 7
-59 16 -91 11 -44 15 -113 16 -258 1 -204 -1 -217 -48 -310 -8 -16 -14 -37
-14 -47 0 -10 -3 -20 -7 -22 -5 -1 -19 -25 -32 -53 -14 -27 -27 -52 -30 -55
-4 -3 -15 -23 -26 -45 -11 -22 -24 -43 -29 -47 -16 -11 -12 -93 4 -109 28 -26
78 -49 107 -49 16 0 35 -6 41 -12 14 -14 137 -25 375 -34 160 -6 175 -4 150
26 -16 19 -29 20 -193 20 -124 0 -193 4 -233 15 -32 8 -75 15 -97 15 -21 0
-41 4 -45 9 -3 5 -19 12 -35 16 -18 4 -31 13 -32 23 -3 39 5 78 18 85 8 4 14
12 14 18 0 5 11 27 25 49 14 22 25 46 25 54 0 7 7 19 15 26 8 7 15 19 15 27 0
8 7 21 15 29 8 9 15 25 15 38 0 12 4 26 10 32 21 21 33 115 37 274 3 91 0 187
-6 215 -14 70 -31 181 -37 240 -3 28 -12 64 -20 82 -8 17 -14 46 -14 65 -1 18
-7 44 -15 58 -8 14 -14 46 -15 73 0 26 -4 47 -9 47 -5 0 -13 25 -16 55 -4 30
-11 58 -16 61 -5 3 -9 22 -9 43 0 20 -7 46 -15 57 -8 10 -15 35 -15 54 0 19
-7 46 -15 60 -8 14 -14 42 -15 62 0 20 -4 39 -9 43 -5 3 -13 30 -16 60 -4 30
-11 55 -16 55 -5 0 -9 20 -9 44 0 26 -6 48 -15 56 -8 7 -15 29 -15 50 0 21 -7
54 -15 73 -8 20 -15 52 -15 71 0 19 -4 37 -9 41 -5 3 -13 34 -16 70 -4 36 -11
65 -16 65 -5 0 -9 24 -9 53 0 31 -6 61 -15 73 -8 10 -15 38 -15 61 0 23 -5 54
-12 70 -6 15 -15 57 -19 93 -15 133 -33 245 -40 250 -14 11 -32 285 -32 485 0
210 16 443 33 480 5 11 12 53 15 93 4 39 11 75 16 78 5 3 9 29 9 58 0 30 7 67
15 82 8 16 15 51 15 77 0 27 5 58 11 69 7 12 15 47 20 77 4 31 13 77 20 104
10 39 16 47 36 47 13 0 23 -4 23 -10 0 -5 6 -10 14 -10 8 0 16 -7 20 -15 3 -8
15 -15 26 -15 11 0 20 -7 20 -15 0 -10 10 -15 28 -15 15 0 33 -5 40 -12 17
-17 202 -17 235 1 31 17 37 58 10 68 -27 10 -118 66 -121 75 -2 4 -12 8 -23 8
-11 0 -22 7 -25 15 -4 8 -10 15 -15 15 -18 0 -49 35 -49 55 0 21 60 85 79 85
6 0 11 6 11 13 0 7 11 21 25 31 18 13 25 28 25 51 0 45 -33 65 -107 65 -48 0
-63 -4 -86 -25 -31 -29 -34 -53 -11 -96 14 -28 14 -33 -2 -57 -17 -28 -64 -71
-76 -72 -5 0 -17 -9 -28 -20 -11 -11 -24 -20 -29 -20 -5 0 -13 9 -16 20 -3 11
-11 20 -16 20 -5 0 -9 9 -9 20 0 11 -7 23 -15 26 -8 4 -15 16 -15 29 0 12 -7
28 -15 35 -8 7 -15 27 -15 44 0 18 -6 38 -12 44 -10 10 -13 61 -13 187 0 126
3 177 13 186 6 7 12 26 12 41 0 15 4 28 9 28 5 0 14 14 20 30 5 17 15 30 20
30 6 0 11 6 11 14 0 16 31 78 43 87 18 13 -13 263 -35 285 -11 10 -10 312 1
318 4 3 11 28 15 55 4 28 11 53 16 56 6 3 10 19 10 35 0 16 7 35 15 44 8 8 15
23 15 34 0 11 7 25 15 32 8 7 15 19 15 26 0 8 11 32 25 54 14 22 25 44 25 50
0 5 6 10 14 10 8 0 16 6 19 13 6 15 42 -20 51 -51 4 -12 12 -22 17 -22 5 0 9
-12 9 -27 0 -16 7 -37 15 -47 8 -11 15 -29 15 -40 0 -12 7 -30 15 -40 8 -11
15 -34 15 -52 0 -18 4 -35 9 -38 5 -3 12 -30 16 -61 3 -30 11 -57 16 -60 5 -4
9 -31 9 -61 0 -30 6 -69 13 -87 16 -40 16 -89 0 -94 -7 -3 -13 2 -13 11 0 9
-4 16 -10 16 -5 0 -12 11 -16 25 -3 14 -10 25 -15 25 -5 0 -9 12 -9 26 0 14
-7 32 -15 40 -8 9 -15 28 -15 42 0 15 -6 36 -14 47 -7 11 -16 40 -19 65 -11
97 -46 205 -71 222 -33 22 -86 -13 -86 -56 0 -13 -7 -26 -15 -30 -9 -3 -15
-18 -15 -39 0 -19 -6 -40 -14 -46 -8 -7 -16 -33 -19 -59 -3 -26 -10 -67 -16
-92 -15 -66 -14 -237 2 -247 7 -4 18 -21 25 -36 6 -15 25 -36 42 -45 16 -9 30
-20 30 -24 0 -5 8 -8 18 -8 10 0 27 -7 38 -15 11 -9 42 -14 77 -15 63 0 106
18 142 58 24 26 33 27 71 7 16 -8 38 -15 50 -15 11 0 25 -5 31 -11 20 -20 262
7 287 32 6 5 20 9 33 9 13 0 23 5 23 11 0 5 14 15 30 20 17 6 30 15 30 20 0 5
5 9 11 9 7 0 22 11 35 25 13 14 27 25 31 26 4 0 28 25 53 54 25 29 51 54 58
54 6 1 12 6 12 11 0 14 158 170 203 200 20 14 37 28 37 33 0 4 18 7 41 7 67 0
71 -10 70 -170 -1 -77 -5 -148 -10 -158 -10 -18 -31 -114 -38 -174 -3 -21 -11
-42 -19 -49 -8 -6 -14 -23 -14 -38 0 -14 -7 -35 -15 -45 -8 -11 -15 -32 -15
-48 0 -15 -4 -28 -9 -28 -5 0 -12 -13 -16 -30 -4 -16 -13 -30 -21 -30 -8 0
-14 -4 -14 -10 0 -5 -5 -10 -11 -10 -8 0 -8 4 -1 13 5 6 13 36 17 65 4 28 11
52 15 52 4 0 11 27 15 60 4 33 11 63 16 66 5 3 9 25 9 48 0 24 7 60 15 79 8
20 15 60 15 89 1 29 5 72 9 96 5 27 5 57 -2 78 -18 58 -48 47 -157 -57 -52
-50 -126 -119 -163 -155 -37 -35 -80 -83 -96 -107 -36 -55 -57 -142 -42 -180
6 -16 11 -39 11 -52 0 -26 24 -73 55 -112 45 -55 96 -103 108 -103 7 0 17 -4
23 -9 5 -5 20 -11 34 -13 22 -3 25 -7 22 -38 -2 -19 -8 -39 -13 -44 -5 -6 -9
-25 -9 -43 0 -19 -7 -50 -15 -70 -8 -19 -15 -50 -15 -69 0 -18 -4 -35 -9 -38
-5 -3 -12 -34 -16 -68 -4 -35 -12 -69 -19 -77 -15 -19 -15 -369 0 -379 6 -4
14 -26 17 -48 4 -23 14 -54 22 -70 8 -16 15 -35 15 -41 0 -7 5 -13 10 -13 6 0
10 -7 10 -15 0 -20 111 -182 155 -228 19 -20 35 -38 35 -42 0 -9 40 -45 50
-45 6 0 10 -4 10 -10 0 -12 138 -150 150 -150 6 0 10 -7 10 -15 0 -8 7 -15 15
-15 8 0 15 -7 15 -15 0 -8 4 -15 10 -15 24 0 510 -485 510 -510 0 -5 7 -10 15
-10 8 0 15 -7 15 -15 0 -8 3 -15 8 -15 4 0 18 -18 32 -40 13 -22 28 -40 32
-40 4 0 8 -7 8 -15 0 -8 6 -15 14 -15 7 0 16 -8 20 -17 6 -19 27 -55 37 -63 4
-3 9 -14 13 -25 3 -11 17 -32 31 -47 14 -15 25 -34 25 -43 0 -9 7 -23 15 -31
8 -9 15 -24 15 -35 0 -10 4 -19 9 -19 5 0 20 -29 33 -65 12 -36 26 -65 30 -65
5 0 8 -13 8 -28 0 -16 7 -37 15 -48 8 -10 15 -36 15 -56 0 -21 4 -38 9 -38 5
0 11 -23 15 -51 4 -28 11 -58 16 -67 27 -53 48 -548 28 -677 -3 -22 -9 -109
-13 -193 -5 -84 -12 -155 -16 -158 -13 -8 -11 -474 1 -474 6 0 10 -17 10 -37
0 -21 5 -56 11 -78 6 -22 14 -57 18 -78 5 -21 14 -44 20 -50 6 -6 11 -21 11
-34 0 -13 4 -23 9 -23 5 0 12 -12 15 -26 4 -14 18 -38 32 -52 13 -15 27 -35
30 -44 3 -10 10 -18 15 -18 5 0 9 -4 9 -9 0 -12 119 -131 131 -131 5 0 9 -4 9
-9 0 -5 10 -13 23 -17 12 -4 31 -17 43 -29 11 -13 31 -26 42 -30 12 -3 22 -10
22 -14 0 -4 -108 -15 -240 -25 -228 -18 -245 -18 -357 -2 -162 24 -190 33
-208 69 -8 17 -15 37 -15 44 0 8 -6 27 -14 41 -8 15 -17 34 -20 42 -4 8 -20
38 -37 65 -16 28 -33 58 -36 68 -3 9 -10 17 -15 17 -5 0 -24 16 -41 36 -67 76
-137 77 -137 2 0 -20 5 -40 10 -43 6 -3 10 -14 10 -24 0 -10 7 -24 15 -31 8
-7 15 -21 15 -31 0 -11 5 -19 10 -19 6 0 14 -8 18 -17 14 -36 57 -93 70 -93 6
0 12 -7 12 -15 0 -8 4 -15 10 -15 9 0 29 -16 101 -82 25 -23 29 -33 29 -82 0
-30 5 -58 10 -61 13 -8 13 -102 0 -110 -5 -3 -10 -17 -10 -30 0 -13 -7 -30
-15 -39 -8 -8 -15 -19 -15 -25 0 -6 -8 -11 -19 -11 -10 0 -24 -6 -30 -14 -11
-13 -103 -27 -181 -28 -119 0 -361 19 -372 30 -7 7 -40 12 -85 12 -43 0 -89 6
-110 15 -19 8 -53 15 -74 15 -21 0 -40 4 -43 9 -3 5 -22 12 -41 15 -19 4 -35
11 -35 16 0 6 -7 10 -15 10 -10 0 -15 10 -15 28 0 20 10 34 39 55 22 15 48 27
59 27 11 0 27 7 36 15 8 8 30 15 48 15 19 0 38 4 43 9 6 6 29 13 52 17 34 5
44 3 49 -10 3 -9 12 -16 19 -16 7 0 15 -7 19 -15 3 -8 15 -15 26 -15 11 0 20
-4 20 -9 0 -5 13 -12 30 -16 16 -4 32 -11 35 -16 8 -12 165 -12 165 0 0 5 11
12 24 15 13 3 26 15 29 26 7 28 -3 60 -18 60 -7 0 -15 4 -17 10 -5 17 -98 33
-215 37 l-113 4 -27 37 c-16 20 -34 41 -40 45 -7 4 -13 17 -13 28 0 11 -7 22
-15 25 -8 4 -15 17 -15 30 0 13 -4 24 -10 24 -5 0 -10 5 -10 11 0 10 -26 71
-51 121 -5 10 -9 28 -9 40 0 13 -7 32 -15 42 -8 11 -15 37 -15 58 0 21 -4 38
-10 38 -5 0 -10 10 -10 23 0 12 -7 50 -16 82 -33 123 -36 403 -4 413 5 2 10
10 10 18 0 19 40 94 51 94 5 0 9 4 9 10 0 13 32 50 43 50 5 0 15 6 22 13 35
31 45 37 60 37 8 0 15 7 15 15 0 9 9 15 24 15 13 0 26 7 30 15 3 9 18 15 35
15 16 0 32 4 35 9 3 5 44 15 90 21 151 23 244 -11 346 -127 22 -25 40 -52 40
-59 0 -8 7 -14 15 -14 8 0 15 -5 15 -11 0 -16 26 -39 44 -39 19 0 21 23 4 42
-19 20 -38 50 -44 71 -4 9 -13 17 -20 17 -8 0 -14 4 -14 10 0 15 -84 97 -108
104 -12 4 -22 12 -22 17 0 5 -8 9 -18 9 -10 0 -27 7 -38 15 -28 21 -239 21
-260 0 -9 -8 -26 -15 -40 -15 -13 0 -32 -4 -42 -9 -9 -5 -47 -24 -84 -41 -36
-17 -69 -37 -72 -45 -3 -8 -10 -15 -17 -15 -13 0 -99 -87 -99 -100 0 -6 -4
-10 -10 -10 -5 0 -12 -11 -16 -25 -3 -14 -10 -25 -15 -25 -5 0 -9 -13 -9 -28
0 -16 -7 -37 -15 -48 -21 -28 -21 -287 0 -337 8 -20 15 -56 15 -80 0 -24 3
-47 7 -51 5 -4 13 -29 20 -54 6 -26 17 -68 24 -94 7 -27 16 -48 21 -48 4 0 8
-12 8 -27 0 -16 7 -37 15 -47 8 -11 15 -30 15 -43 0 -13 4 -23 9 -23 5 0 12
-13 16 -30 4 -16 11 -30 16 -30 5 0 11 -11 15 -25 3 -14 10 -25 15 -25 5 0 9
-6 9 -13 0 -7 11 -29 25 -49 14 -20 25 -39 25 -42 0 -2 -25 -8 -55 -11 -30 -4
-55 -11 -55 -16 0 -5 -15 -9 -34 -9 -21 0 -36 -6 -40 -15 -3 -8 -16 -15 -30
-15 -13 0 -26 -7 -30 -15 -3 -8 -11 -15 -19 -15 -23 0 -67 -54 -67 -83 0 -29
44 -77 70 -77 9 0 25 -7 36 -15 10 -8 33 -15 49 -15 17 0 37 -6 43 -12 7 -7
43 -16 80 -20 37 -4 112 -12 167 -18 55 -6 114 -15 131 -20 39 -13 431 -13
439 -1 3 5 19 12 35 16 17 4 30 11 30 16 0 5 7 9 15 9 8 0 15 3 15 8 0 4 12
21 27 37 l28 29 -2 143 c-2 130 0 143 16 143 9 0 23 -6 29 -12 16 -16 486 -21
677 -8 117 8 205 -1 205 -21 0 -5 8 -9 18 -9 10 0 27 -7 38 -15 10 -8 28 -15
40 -15 11 0 29 -7 40 -15 10 -8 31 -15 45 -15 15 0 32 -7 39 -15 7 -9 29 -15
51 -15 22 0 39 -4 39 -9 0 -5 25 -12 55 -16 30 -3 55 -11 55 -16 0 -5 24 -9
54 -9 29 0 70 -7 89 -15 20 -8 65 -15 99 -15 35 0 95 -5 133 -11 39 -5 120
-10 180 -9 61 0 122 1 138 1 15 0 27 4 27 9 0 6 35 10 79 10 44 0 92 5 108 12
15 6 51 15 78 19 72 11 145 32 145 41 0 5 11 8 25 8 14 0 28 7 31 15 4 8 11
15 16 15 17 0 37 33 38 58 0 26 -21 52 -42 52 -7 0 -23 6 -33 14 -11 8 -45 16
-75 19 -30 3 -95 10 -145 16 -187 22 -1202 11 -1376 -15 -22 -3 -40 -1 -44 5
-3 6 -14 11 -24 11 -10 0 -26 9 -36 20 -10 11 -24 20 -32 20 -7 0 -13 4 -13 9
0 5 -11 12 -25 15 -14 4 -25 11 -25 16 0 6 -5 10 -10 10 -22 0 -210 187 -210
209 0 5 -7 11 -15 15 -8 3 -15 15 -15 26 0 11 -4 20 -9 20 -5 0 -12 14 -16 30
-4 17 -11 30 -16 30 -5 0 -12 18 -15 40 -4 22 -10 40 -15 40 -5 0 -9 17 -9 39
0 21 -7 55 -15 74 -19 47 -22 585 -3 620 7 13 13 87 16 182 2 88 8 167 12 175
11 21 10 289 -1 295 -5 4 -9 57 -9 118 -1 83 -4 117 -15 131 -9 12 -15 42 -15
73 0 29 -4 53 -9 53 -4 0 -11 19 -14 43 -3 24 -13 56 -21 72 -9 17 -16 40 -16
52 0 12 -4 25 -10 28 -5 3 -10 15 -10 25 0 10 -6 31 -14 47 -94 191 -128 254
-154 283 -12 14 -25 33 -28 43 -3 9 -10 17 -15 17 -5 0 -9 5 -9 10 0 11 -10
24 -42 61 -10 10 -18 22 -18 25 0 4 -11 17 -25 30 -14 13 -25 26 -25 29 0 8
-18 30 -67 80 -24 24 -43 46 -43 49 0 10 -39 46 -50 46 -5 0 -10 7 -10 15 0 8
-5 15 -11 15 -11 0 -39 24 -39 34 0 10 -39 46 -50 46 -5 0 -10 7 -10 15 0 8
-5 15 -11 15 -11 0 -39 24 -39 34 0 7 -38 46 -45 46 -2 0 -24 19 -48 43 -87
82 -168 157 -173 157 -9 0 -64 61 -64 70 0 6 -4 10 -10 10 -12 0 -100 88 -100
100 0 6 -7 10 -15 10 -8 0 -15 5 -15 11 0 6 -6 16 -12 24 -7 7 -26 30 -43 50
-16 21 -34 43 -40 49 -13 15 -33 47 -42 66 -4 8 -13 21 -20 28 -7 7 -13 20
-13 28 0 8 -4 14 -9 14 -5 0 -12 14 -16 30 -4 17 -10 30 -15 30 -4 0 -10 15
-13 33 -2 17 -9 46 -15 62 -21 58 -33 207 -22 264 5 29 10 77 10 105 0 30 6
60 15 72 8 10 15 40 15 66 0 26 4 49 9 52 5 3 12 31 16 61 3 30 10 55 15 55 4
0 11 25 15 55 3 30 11 55 16 55 5 0 9 18 9 40 0 29 4 40 15 40 8 0 15 5 15 10
0 6 11 21 24 33 13 12 34 41 46 65 12 23 26 45 31 48 5 3 9 16 9 30 0 14 7 27
15 30 8 4 15 17 15 30 0 13 4 32 9 42 6 9 17 44 26 77 9 33 22 81 30 106 8 26
15 67 15 91 0 24 6 50 12 56 8 8 14 53 16 122 3 89 1 115 -12 135 -9 13 -16
30 -16 37 0 25 -39 48 -80 48 -39 0 -70 -12 -98 -37 -7 -7 -18 -13 -23 -13
-13 0 -239 -226 -239 -239 0 -6 -7 -11 -15 -11 -8 0 -15 -5 -15 -11 0 -11 -24
-39 -34 -39 -10 0 -46 -39 -46 -50 0 -5 -7 -10 -15 -10 -8 0 -15 -4 -15 -10 0
-5 -11 -12 -25 -16 -14 -3 -25 -10 -25 -15 0 -5 -8 -9 -19 -9 -10 0 -24 -7
-31 -15 -7 -8 -23 -15 -37 -15 -13 0 -31 -7 -39 -15 -12 -12 -42 -15 -135 -15
-97 0 -121 3 -125 15 -4 8 -18 15 -31 15 -44 0 -52 24 -53 150 0 82 -4 123
-15 144 -8 15 -15 42 -15 60 0 17 -7 44 -15 60 -8 15 -15 37 -15 48 0 22 -27
114 -41 140 -5 10 -9 23 -9 29 0 17 -44 109 -52 109 -5 0 -8 4 -8 10 0 5 -8
19 -17 30 -27 31 -86 27 -118 -7z m55 -261 c0 -21 5 -43 12 -50 6 -6 15 -33
19 -59 11 -66 32 -150 42 -159 4 -4 7 -22 7 -40 0 -19 6 -34 15 -38 8 -3 15
-15 15 -26 0 -11 7 -23 15 -26 8 -4 15 -15 15 -26 0 -10 11 -29 25 -42 34 -32
33 -67 -4 -89 -40 -23 -147 -23 -182 1 -38 25 -89 81 -89 96 0 7 -7 32 -15 55
-10 30 -12 49 -5 67 6 14 13 58 16 97 4 40 13 81 20 92 8 11 14 28 14 38 0 24
32 118 45 134 20 24 35 14 35 -25z m1207 -294 c-8 -88 -29 -212 -37 -223 -5
-6 -12 -38 -16 -73 -3 -34 -11 -62 -15 -62 -5 0 -9 -19 -9 -42 -1 -24 -7 -54
-15 -68 -8 -14 -14 -42 -15 -62 0 -20 -4 -39 -9 -42 -4 -3 -11 -24 -15 -46 -6
-40 -6 -40 -51 -40 -31 0 -47 5 -51 15 -4 8 -10 15 -16 15 -15 0 -78 74 -78
93 0 9 -4 17 -9 17 -15 0 -41 84 -41 132 0 44 19 95 48 126 6 7 17 23 24 35 6
12 27 35 46 52 20 16 51 45 69 63 19 17 36 32 38 32 10 0 95 89 95 99 0 6 7
11 15 11 8 0 15 5 15 10 0 6 7 10 16 10 13 0 15 -9 11 -52z m-1067 -1087 c0
-20 -89 -93 -102 -85 -5 3 -8 27 -8 55 l0 49 55 0 c47 0 55 -3 55 -19z m-140
-193 c1 -7 8 -22 18 -33 23 -27 152 -112 177 -117 11 -2 21 -12 23 -22 4 -17
-2 -18 -90 -11 -76 6 -103 13 -146 37 -102 56 -117 91 -52 122 22 11 40 23 40
28 0 13 30 9 30 -4z m1900 -4265 c0 -7 4 -13 10 -13 10 0 50 -80 50 -99 0 -6
5 -11 10 -11 6 0 10 -13 10 -30 0 -16 -2 -30 -5 -30 -6 0 -45 38 -45 44 0 3
-13 20 -30 38 -16 18 -30 38 -30 45 0 7 -4 13 -8 13 -15 0 -75 127 -69 144 6
14 16 8 57 -35 27 -29 50 -58 50 -66z m2298 -273 c37 -6 121 -15 187 -19 136
-10 226 -27 237 -44 15 -23 8 -37 -17 -37 -14 0 -28 -7 -31 -15 -4 -8 -16 -15
-28 -15 -11 0 -30 -7 -40 -15 -11 -8 -36 -15 -56 -15 -20 0 -40 -4 -45 -9 -37
-37 -589 -49 -775 -18 -58 10 -127 21 -155 25 -27 5 -60 13 -72 20 -12 7 -37
12 -56 12 -19 0 -40 7 -47 15 -7 8 -28 15 -46 15 -19 0 -34 5 -34 10 0 6 -9
10 -20 10 -23 0 -119 41 -120 51 0 3 78 9 173 13 94 5 195 11 222 16 76 11
647 11 723 0z m-2602 -116 c19 -9 34 -23 34 -30 0 -21 -178 -20 -186 1 -4 8
-15 15 -25 15 -10 0 -19 7 -19 15 0 22 149 21 196 -1z"/>
<path d="M11470 8678 c-47 -33 -105 -121 -136 -208 -36 -100 -44 -301 -20
-467 36 -243 104 -430 292 -800 130 -257 133 -263 118 -291 -20 -42 -2 -83 23
-49 20 26 427 905 484 1045 97 238 140 381 146 493 4 66 2 102 -7 118 -11 22
-17 23 -82 19 -55 -4 -87 -14 -152 -47 -138 -68 -222 -164 -314 -361 -52 -112
-49 -116 -87 90 -38 201 -60 281 -105 370 -56 112 -94 133 -160 88z m89 -30
c38 -38 44 -51 78 -173 39 -143 79 -346 108 -540 38 -260 44 -288 60 -275 10
8 13 48 12 163 -1 218 32 334 137 475 80 108 245 212 337 212 44 0 47 -2 53
-31 12 -62 5 -102 -49 -272 -65 -207 -113 -323 -320 -772 -167 -363 -200 -428
-217 -423 -16 6 -89 131 -168 287 -179 356 -268 685 -258 950 6 134 28 219 85
321 22 39 88 109 104 110 3 0 20 -15 38 -32z"/>
<path d="M10719 5167 c-39 -30 -40 -44 -29 -380 17 -541 10 -1570 -16 -2308
l-7 -197 26 -26 c20 -20 36 -26 70 -26 47 0 68 15 85 60 6 16 6 212 1 520 -6
326 -4 775 4 1315 15 1026 15 977 -2 1007 -23 44 -96 63 -132 35z"/>
<path d="M2552 5140 c-12 -11 -25 -32 -28 -45 -3 -13 0 -116 8 -227 10 -152
13 -504 13 -1410 l0 -1207 22 -22 c18 -18 32 -22 92 -21 94 0 158 16 259 63
190 87 354 244 444 424 65 128 105 319 93 448 -12 143 -45 234 -111 307 -89
98 -259 123 -393 57 -62 -30 -179 -148 -219 -222 l-32 -60 1 938 c2 924 2 939
-18 965 -27 36 -97 43 -131 12z m623 -1789 c49 -22 68 -43 97 -106 20 -44 23
-65 22 -170 -1 -140 -17 -212 -74 -330 -71 -148 -193 -267 -356 -351 -40 -20
-92 -38 -117 -41 l-44 -5 -7 173 c-9 226 5 445 34 521 31 83 88 166 160 230
100 91 199 118 285 79z"/>
<path d="M8967 4954 c-100 -24 -167 -62 -244 -139 -126 -125 -181 -284 -169
-486 17 -281 120 -456 426 -725 278 -245 363 -349 423 -522 28 -80 31 -99 31
-222 1 -187 -29 -294 -111 -389 -135 -158 -405 -162 -540 -8 -72 82 -107 197
-118 381 -7 122 -18 148 -67 160 -54 13 -83 -9 -104 -81 -24 -84 -15 -255 18
-345 80 -214 237 -352 435 -380 304 -44 558 134 639 447 25 97 26 344 1 433
-57 210 -135 317 -405 555 -265 234 -337 316 -394 447 -50 113 -72 270 -56
399 15 123 98 250 195 300 127 64 317 35 399 -62 71 -84 88 -166 68 -321 -20
-146 -4 -186 73 -186 74 0 103 59 103 207 0 141 -13 211 -57 303 -95 198 -311
291 -546 234z"/>
<path d="M856 4919 c-185 -24 -357 -69 -395 -103 l-24 -21 7 -190 c3 -104 11
-293 16 -420 8 -161 7 -476 0 -1051 -13 -927 -17 -872 61 -895 53 -16 158 0
295 46 373 125 636 385 721 714 21 83 24 112 20 216 -3 92 -9 133 -26 176 -62
160 -242 265 -464 271 -42 1 -76 2 -74 4 1 1 48 36 103 77 190 141 309 270
379 412 115 231 96 507 -43 642 -111 108 -327 154 -576 122z m262 -139 c336
-63 365 -466 58 -806 -144 -158 -354 -301 -513 -348 l-53 -15 1 492 c1 271 4
521 8 557 l6 64 67 23 c36 13 90 27 120 32 73 12 245 13 306 1z m14 -1275
c114 -28 207 -96 249 -183 34 -68 34 -225 1 -332 -71 -228 -272 -428 -534
-530 -72 -28 -213 -59 -223 -48 -3 2 -6 238 -7 524 l-3 519 79 28 c133 46 304
55 438 22z"/>
<path d="M1995 4080 c-44 -13 -92 -64 -99 -105 -22 -113 80 -202 188 -164 75
26 115 125 79 196 -31 64 -100 93 -168 73z"/>
<path d="M3865 4079 c-43 -12 -92 -63 -99 -104 -22 -113 80 -202 188 -164 75
26 115 125 79 196 -31 63 -99 92 -168 72z"/>
<path d="M10083 4079 c-44 -13 -89 -61 -97 -103 -22 -114 80 -203 188 -165 75
26 115 125 79 196 -31 63 -99 92 -170 72z"/>
<path d="M4736 3530 c-152 -27 -298 -154 -327 -285 -22 -99 10 -165 81 -165
56 0 76 20 84 85 8 72 25 112 67 160 44 50 100 75 170 75 135 0 199 -107 199
-336 l0 -122 -57 15 c-79 21 -226 13 -313 -16 -126 -43 -224 -125 -274 -230
-29 -61 -31 -74 -31 -171 0 -121 17 -169 85 -239 51 -52 105 -79 182 -90 130
-18 237 20 349 127 l69 64 0 -51 c0 -61 20 -115 48 -130 30 -16 84 -13 110 5
27 19 29 63 5 125 -15 38 -18 103 -24 459 -7 423 -10 460 -50 544 -65 139
-206 206 -373 176z m252 -716 c21 -6 22 -11 22 -118 0 -109 -1 -114 -31 -159
-41 -62 -123 -135 -184 -163 -145 -68 -305 21 -305 172 0 125 99 239 237 274
40 10 221 6 261 -6z"/>
<path d="M7136 3530 c-152 -27 -298 -154 -327 -285 -22 -99 10 -165 81 -165
56 0 76 20 84 85 8 72 25 112 67 160 44 50 100 75 170 75 135 0 199 -107 199
-336 l0 -122 -57 15 c-79 21 -226 13 -313 -16 -126 -43 -224 -125 -274 -230
-29 -61 -31 -74 -31 -171 0 -121 17 -169 85 -239 51 -52 105 -79 182 -90 130
-18 237 20 349 127 l69 64 0 -51 c0 -61 20 -115 48 -130 30 -16 84 -13 110 5
27 19 29 63 5 125 -15 38 -18 103 -24 459 -7 423 -10 460 -50 544 -65 139
-206 206 -373 176z m252 -716 c21 -6 22 -11 22 -118 0 -109 -1 -114 -31 -159
-41 -62 -123 -135 -184 -163 -145 -68 -305 21 -305 172 0 125 99 239 237 274
40 10 221 6 261 -6z"/>
<path d="M12701 3529 c-147 -26 -293 -155 -322 -284 -22 -99 10 -165 81 -165
56 0 76 20 84 85 8 72 25 112 67 160 43 49 100 75 167 75 85 0 133 -34 174
-125 19 -42 23 -72 26 -191 l4 -142 -53 15 c-77 20 -234 12 -319 -16 -128 -44
-224 -124 -273 -229 -30 -62 -32 -75 -32 -172 0 -123 17 -172 84 -239 53 -53
106 -79 183 -90 130 -18 237 20 348 125 l68 64 4 -65 c5 -86 29 -119 87 -123
86 -6 112 43 74 139 -15 38 -18 103 -24 459 -4 257 -11 431 -18 458 -54 202
-204 298 -410 261z m257 -715 c21 -6 22 -11 22 -118 0 -109 -1 -114 -31 -159
-42 -64 -123 -135 -188 -165 -130 -60 -282 13 -297 144 -17 138 81 265 233
304 40 10 221 6 261 -6z"/>
<path d="M6003 3491 c-81 -28 -158 -85 -209 -154 -25 -34 -48 -64 -51 -67 -3
-3 -3 33 -1 80 5 85 -3 128 -25 142 -25 16 -96 9 -117 -12 -11 -11 -20 -23
-20 -27 0 -5 -2 -268 -3 -586 l-2 -578 22 -20 c28 -27 96 -30 121 -6 16 16 17
46 13 360 l-3 342 26 78 c61 182 191 306 321 307 88 0 135 -50 166 -177 16
-63 16 -579 0 -735 -7 -79 -8 -125 -1 -143 13 -34 63 -55 104 -44 66 19 64 3
60 476 -2 235 -6 446 -9 468 -37 239 -200 363 -392 296z"/>
<path d="M11207 3490 c-56 -44 -49 -85 53 -335 34 -82 115 -316 180 -519 66
-203 126 -376 134 -384 22 -22 101 -20 126 3 11 10 35 67 55 134 67 216 177
545 257 766 88 244 97 295 59 326 -14 11 -39 19 -63 19 -65 0 -81 -27 -123
-208 -42 -177 -109 -414 -189 -672 l-54 -174 -20 69 c-12 39 -66 232 -122 430
-146 522 -148 527 -207 551 -43 19 -56 18 -86 -6z"/>
<path d="M1955 3448 l-28 -33 7 -160 c9 -217 9 -559 0 -791 l-7 -190 28 -22
c15 -12 42 -22 59 -22 32 0 74 29 78 53 1 7 2 176 2 377 1 201 5 455 10 565 8
197 8 200 -13 228 -18 22 -31 27 -66 27 -36 0 -47 -5 -70 -32z"/>
<path d="M3825 3448 l-28 -33 7 -160 c9 -217 9 -559 0 -791 l-7 -190 28 -22
c42 -33 104 -25 130 17 6 10 10 158 10 391 0 206 4 464 9 573 l9 197 -23 25
c-18 19 -34 25 -66 25 -35 0 -47 -5 -69 -32z"/>
<path d="M10045 3448 l-28 -33 7 -165 c9 -226 9 -546 1 -781 l-8 -195 28 -22
c31 -24 62 -28 99 -11 45 21 49 49 41 299 -5 149 -3 348 5 556 13 321 13 325
-7 352 -16 21 -30 28 -65 30 -41 3 -48 0 -73 -30z"/>
<path d="M3550 1285 c-43 -54 -50 -68 -40 -80 19 -23 31 -17 87 44 l53 58 -24
22 -23 22 -53 -66z"/>
<path d="M9484 1327 c-11 -12 -35 -41 -54 -65 -30 -40 -32 -45 -16 -60 15 -15
20 -12 71 38 30 30 55 59 55 66 0 6 -8 18 -18 27 -17 16 -20 16 -38 -6z"/>
<path d="M2660 860 l0 -310 30 0 30 0 0 210 c0 116 3 210 8 210 4 -1 50 -61
102 -135 53 -76 101 -135 110 -135 8 1 59 64 113 142 l97 142 0 -217 0 -217
35 0 35 0 0 311 c0 244 -3 310 -12 307 -7 -3 -69 -86 -138 -186 -69 -99 -127
-181 -130 -181 -3 0 -63 83 -133 184 -71 102 -133 185 -138 185 -5 0 -9 -128
-9 -310z"/>
<path d="M5430 1113 c-110 -294 -200 -542 -200 -552 0 -6 15 -11 34 -11 28 0
35 4 40 25 4 14 16 50 27 80 l20 55 109 0 108 0 28 -80 29 -80 37 0 38 0 -30
83 c-129 352 -198 531 -207 534 -6 2 -21 -22 -33 -54z m74 -223 c21 -61 36
-113 34 -116 -3 -3 -41 -4 -85 -2 l-79 3 40 113 c22 61 43 112 46 112 3 0 22
-50 44 -110z"/>
<path d="M8610 860 l0 -310 30 0 30 0 2 226 3 226 195 -233 c107 -128 201
-235 208 -237 9 -3 12 63 12 308 l0 311 -32 -3 -33 -3 -1 -213 c-1 -117 -3
-215 -6 -218 -3 -3 -93 99 -199 225 -106 127 -196 231 -201 231 -4 0 -8 -139
-8 -310z"/>
<path d="M9400 1113 c-110 -294 -200 -542 -200 -552 0 -6 15 -11 34 -11 28 0
35 4 40 25 4 14 16 50 27 80 l20 55 109 0 108 0 28 -80 27 -80 39 0 38 0 -30
83 c-129 352 -198 531 -207 534 -6 2 -21 -22 -33 -54z m74 -223 c21 -61 36
-113 34 -116 -3 -3 -41 -4 -85 -2 l-79 3 40 113 c22 61 43 112 46 112 3 0 22
-50 44 -110z"/>
<path d="M10642 1118 c-106 -284 -202 -548 -202 -557 0 -6 15 -11 34 -11 28 0
35 4 40 25 4 14 16 50 27 80 l20 55 109 0 108 0 28 -80 29 -80 37 0 38 0 -30
83 c-129 352 -198 531 -207 534 -6 2 -20 -20 -31 -49z m72 -228 c21 -61 36
-113 34 -116 -3 -3 -41 -4 -85 -2 l-79 3 40 113 c22 61 43 112 46 112 3 0 22
-50 44 -110z"/>
<path d="M4873 1150 c-139 -28 -236 -148 -237 -295 0 -92 16 -143 64 -203 55
-71 131 -106 225 -106 79 0 121 13 182 58 48 35 51 45 23 71 -19 17 -20 16
-52 -10 -73 -62 -160 -72 -245 -30 -85 43 -127 116 -126 220 1 96 48 174 127
211 84 39 164 29 244 -33 l34 -26 21 22 21 21 -28 29 c-54 56 -167 88 -253 71z"/>
<path d="M3380 850 l0 -300 155 0 155 0 0 30 0 29 -122 3 -123 3 0 105 0 105
93 3 92 3 0 29 0 29 -92 3 -93 3 0 95 0 95 123 3 122 3 0 29 0 30 -155 0 -155
0 0 -300z"/>
<path d="M3820 851 l0 -301 118 0 c206 0 298 43 364 170 19 37 23 60 23 130 0
73 -4 92 -27 137 -15 28 -47 67 -70 86 -72 57 -117 69 -270 75 l-138 5 0 -302z
m237 228 c123 -21 198 -109 198 -229 -1 -76 -25 -130 -79 -177 -48 -43 -96
-56 -201 -57 l-90 -1 -3 225 c-1 123 0 230 2 237 7 16 86 17 173 2z"/>
<path d="M4450 850 l0 -300 30 0 30 0 0 300 0 300 -30 0 -30 0 0 -300z"/>
<path d="M5940 1137 c0 -30 209 -602 220 -602 7 0 62 131 126 305 63 168 114
306 114 308 0 1 -15 2 -33 2 l-34 0 -83 -227 c-80 -217 -85 -225 -96 -197 -7
16 -43 118 -81 226 l-68 198 -32 0 c-20 0 -33 -5 -33 -13z"/>
<path d="M6510 850 l0 -300 155 0 155 0 0 30 0 29 -122 3 -123 3 0 105 0 105
93 3 92 3 0 29 0 29 -92 3 -93 3 0 95 0 95 123 3 122 3 0 29 0 30 -155 0 -155
0 0 -300z"/>
<path d="M6890 1120 l0 -29 98 -3 97 -3 3 -268 2 -268 33 3 32 3 3 268 2 267
95 0 95 0 0 30 0 30 -230 0 -230 0 0 -30z"/>
<path d="M7450 850 l0 -300 155 0 155 0 0 30 0 29 -122 3 -123 3 0 105 0 105
93 3 92 3 0 29 0 29 -92 3 -93 3 0 95 0 95 123 3 122 3 0 29 0 30 -155 0 -155
0 0 -300z"/>
<path d="M7900 851 l0 -301 30 0 30 0 0 121 0 120 42 -3 c42 -3 43 -4 122
-120 79 -116 81 -118 118 -118 21 0 38 2 38 5 0 3 -36 60 -81 127 -62 93 -78
122 -68 129 8 5 19 9 25 9 18 0 62 53 79 94 23 55 13 117 -27 162 -49 56 -80
67 -200 72 l-108 5 0 -302z m213 218 c39 -20 56 -41 63 -76 15 -80 -47 -133
-156 -133 l-60 0 0 108 c0 60 3 112 8 116 10 11 117 -1 145 -15z"/>
<path d="M8390 850 l0 -300 30 0 30 0 0 300 0 300 -30 0 -30 0 0 -300z"/>
<path d="M9770 850 l0 -300 30 0 30 0 0 120 0 120 43 0 42 0 79 -120 c78 -119
79 -120 117 -120 22 0 39 2 39 5 0 3 -36 60 -81 127 -62 93 -78 122 -68 129 8
5 19 9 25 9 17 0 62 53 79 93 25 61 12 122 -39 173 -50 51 -93 64 -208 64
l-88 0 0 -300z m213 219 c39 -20 56 -41 63 -76 15 -80 -47 -133 -156 -133
l-60 0 0 108 c0 60 3 112 8 116 10 11 117 -1 145 -15z"/>
<path d="M10270 850 l0 -300 30 0 30 0 0 300 0 300 -30 0 -30 0 0 -300z"/>
</g>
</svg>
