<?xml version="1.0" standalone="no"?>
<!DOCTYPE svg PUBLIC "-//W3C//DTD SVG 20010904//EN"
 "http://www.w3.org/TR/2001/REC-SVG-20010904/DTD/svg10.dtd">
<svg version="1.0" xmlns="http://www.w3.org/2000/svg"
 width="2604.000000pt" height="2603.000000pt" viewBox="0 0 2604.000000 2603.000000"
 preserveAspectRatio="xMidYMid meet">

<g transform="translate(0.000000,2603.000000) scale(0.100000,-0.100000)"
fill="#000000" stroke="none">
<path d="M12117 19264 c-149 -27 -319 -97 -451 -187 -87 -59 -208 -178 -286
-283 -77 -103 -105 -127 -169 -144 -59 -16 -106 -8 -286 47 -134 41 -161 46
-250 47 -90 1 -106 -2 -157 -27 -74 -36 -150 -119 -178 -195 -104 -277 4 -527
324 -756 87 -62 213 -141 646 -405 251 -153 280 -179 280 -250 0 -213 -289
-734 -582 -1047 -32 -34 -58 -68 -58 -76 0 -19 20 -38 41 -38 42 0 278 285
412 498 126 201 244 468 262 594 l7 48 202 -6 c178 -6 550 8 597 22 12 3 19
-9 28 -53 40 -178 154 -344 293 -426 87 -51 164 -69 269 -65 87 3 104 7 172
41 41 20 98 57 125 82 60 54 50 65 123 -126 152 -404 226 -749 236 -1110 11
-405 -27 -588 -246 -1186 -205 -560 -252 -757 -252 -1071 1 -230 32 -390 112
-560 58 -126 117 -201 300 -384 92 -91 181 -187 199 -214 43 -62 70 -134 70
-187 l0 -44 -117 -26 c-313 -72 -553 -105 -818 -114 -217 -7 -250 0 -279 61
-11 24 -42 296 -106 932 -129 1276 -145 1414 -195 1658 -159 765 -556 1178
-1165 1212 -342 20 -689 -94 -1005 -331 -226 -169 -466 -463 -660 -810 -362
-648 -596 -1455 -655 -2265 -5 -74 -10 -141 -10 -147 0 -9 -14 -8 -51 7 -243
92 -370 301 -370 610 0 154 13 226 101 583 131 532 186 918 197 1402 6 259 -4
393 -37 512 -83 292 -324 477 -567 436 -37 -7 -69 -11 -70 -9 -2 2 126 284
283 627 583 1271 658 1446 798 1877 95 293 116 401 116 597 0 126 -9 159 -51
181 -99 51 -407 -45 -589 -184 -93 -70 -212 -199 -277 -298 -44 -68 -218 -412
-258 -509 -10 -26 -21 18 -75 315 -85 464 -127 615 -226 811 -83 168 -141 214
-237 188 -75 -20 -196 -157 -269 -304 -102 -204 -146 -444 -134 -727 14 -355
80 -693 208 -1067 88 -258 167 -436 420 -944 125 -252 228 -465 228 -473 0 -8
-9 -31 -20 -51 -11 -21 -20 -52 -20 -68 0 -33 24 -75 35 -63 4 4 16 3 26 -3
13 -7 35 -4 78 11 75 25 122 25 199 2 201 -63 317 -236 353 -527 14 -113 6
-498 -16 -720 -33 -350 -80 -611 -180 -1015 -82 -331 -98 -426 -98 -580 1
-321 131 -552 375 -664 92 -43 128 -52 258 -65 422 -43 1073 -64 1545 -51 636
18 734 34 852 135 108 92 113 252 11 341 -42 37 -66 47 -198 79 -125 31 -164
55 -186 112 -14 37 -15 52 -5 105 15 78 48 195 112 403 121 384 151 598 114
808 -27 153 -84 287 -160 374 l-45 51 44 93 c65 138 106 261 95 282 -13 23
-56 22 -69 -3 -6 -10 -24 -57 -40 -103 -16 -46 -43 -114 -60 -151 l-30 -67
-42 25 c-96 55 -259 73 -377 41 -128 -34 -236 -117 -286 -220 -72 -146 23
-255 225 -258 173 -2 334 78 447 224 25 32 50 59 54 59 16 0 90 -120 118 -192
46 -114 64 -232 58 -373 -6 -148 -37 -288 -123 -566 -123 -398 -140 -501 -97
-584 41 -78 86 -104 239 -140 58 -14 118 -32 133 -39 89 -47 99 -144 24 -227
-77 -85 -155 -104 -483 -118 -679 -29 -1210 -20 -1788 33 l-127 11 3 75 c27
716 225 1481 558 2150 168 337 321 564 517 767 236 244 489 398 764 467 515
130 957 -26 1227 -432 176 -264 271 -590 335 -1152 11 -96 63 -600 116 -1120
52 -520 100 -963 106 -985 14 -52 76 -111 132 -126 60 -16 384 -5 580 20 273
36 641 116 659 144 15 24 8 147 -12 203 -33 94 -77 152 -280 359 -217 223
-257 281 -316 453 -45 132 -64 259 -64 432 0 300 48 495 263 1080 198 538 237
719 237 1088 0 418 -88 831 -276 1303 l-54 136 40 79 c62 122 81 212 87 399
10 312 -60 827 -151 1105 -75 233 -186 419 -332 560 -181 174 -373 272 -618
315 -108 18 -274 18 -379 -1z m458 -98 c129 -33 296 -117 401 -199 268 -213
418 -536 493 -1062 92 -649 60 -919 -131 -1121 -92 -96 -171 -136 -283 -142
-99 -5 -167 16 -258 82 -158 112 -237 292 -237 542 0 187 43 397 135 663 73
210 148 365 291 608 23 39 11 68 -27 68 -28 0 -57 -41 -148 -209 -194 -358
-331 -816 -331 -1108 0 -53 -4 -99 -8 -102 -21 -13 -498 -29 -644 -22 l-157 8
-26 44 c-31 53 -28 51 -465 319 -455 279 -517 322 -620 425 -97 97 -151 187
-170 288 -32 160 35 332 154 395 34 18 56 22 126 21 71 -2 109 -9 235 -49 129
-41 162 -48 240 -49 137 -2 183 27 305 190 175 232 405 375 687 429 117 22
311 14 438 -19z m-4917 -117 c46 -34 91 -92 117 -154 21 -51 135 -500 169
-665 35 -173 70 -386 106 -645 56 -403 69 -480 87 -524 l19 -44 23 32 c23 32
23 32 12 209 -28 444 54 776 261 1057 120 163 330 326 519 402 72 29 200 43
223 24 21 -18 40 -138 34 -217 -9 -116 -201 -716 -321 -1004 -190 -454 -702
-1587 -770 -1703 l-52 -87 -32 37 c-37 44 -198 332 -301 538 -234 470 -397
955 -476 1410 -82 479 -50 776 119 1116 48 97 67 124 128 182 39 37 76 67 82
67 6 0 30 -14 53 -31z m3235 -4812 c31 -16 57 -34 57 -42 0 -22 -86 -120 -139
-159 -27 -20 -75 -48 -107 -64 -53 -24 -70 -27 -169 -27 -86 0 -117 4 -142 18
-56 30 -56 85 0 158 81 107 184 151 342 146 86 -2 108 -6 158 -30z"/>
<path d="M14175 18433 c-14 -15 -25 -34 -25 -41 0 -7 -7 -15 -15 -18 -8 -4
-15 -14 -15 -24 0 -10 -7 -23 -15 -30 -8 -7 -15 -23 -15 -36 0 -13 -4 -24 -10
-24 -5 0 -10 -8 -10 -17 0 -10 -7 -31 -15 -47 -8 -15 -15 -40 -15 -55 0 -14
-7 -35 -15 -45 -8 -11 -15 -36 -15 -57 0 -20 -7 -53 -15 -72 -9 -22 -15 -67
-15 -112 0 -45 6 -90 15 -112 8 -19 15 -52 15 -73 0 -21 7 -51 15 -66 21 -40
21 -187 0 -204 -8 -7 -15 -17 -15 -22 0 -5 -7 -16 -15 -24 -8 -9 -15 -24 -15
-35 0 -10 -4 -19 -10 -19 -5 0 -12 -11 -16 -25 -3 -14 -10 -25 -14 -25 -5 0
-12 -21 -16 -47 -3 -27 -11 -53 -16 -60 -12 -15 -4 -261 10 -328 11 -54 49
-153 73 -195 5 -8 13 -25 19 -37 5 -13 14 -23 20 -23 16 0 12 -86 -5 -100 -8
-7 -15 -28 -15 -47 0 -19 -5 -44 -12 -56 -7 -12 -16 -49 -20 -82 -12 -96 -32
-209 -40 -221 -4 -6 -10 -41 -14 -78 -4 -36 -11 -69 -15 -72 -5 -3 -9 -33 -9
-68 0 -35 -7 -85 -15 -112 -22 -72 -22 -756 0 -828 8 -27 15 -76 15 -109 0
-33 4 -74 9 -91 11 -34 26 -121 43 -238 7 -43 15 -78 20 -78 4 0 8 -24 8 -53
0 -31 6 -61 15 -73 8 -10 15 -39 15 -64 0 -26 5 -51 12 -58 7 -7 15 -36 19
-64 13 -92 31 -173 40 -183 5 -5 9 -24 9 -42 0 -19 7 -50 15 -70 8 -19 15 -50
15 -67 0 -17 7 -40 15 -50 8 -11 15 -37 15 -57 0 -21 4 -40 9 -43 5 -4 12 -29
16 -56 4 -27 11 -52 16 -56 5 -3 9 -22 9 -42 1 -20 7 -48 15 -62 8 -14 14 -39
15 -56 0 -18 7 -45 15 -60 8 -16 15 -45 15 -64 0 -20 4 -40 9 -45 9 -10 26
-87 40 -186 5 -30 13 -65 20 -77 6 -11 11 -38 11 -60 0 -21 7 -62 16 -91 11
-39 15 -102 16 -252 1 -207 -1 -219 -48 -312 -8 -16 -14 -37 -14 -47 0 -10 -3
-20 -7 -22 -5 -1 -19 -25 -32 -53 -14 -27 -27 -52 -30 -55 -4 -3 -15 -23 -26
-45 -11 -22 -24 -43 -29 -47 -16 -11 -12 -93 4 -109 28 -26 78 -49 107 -49 16
0 35 -6 41 -12 14 -14 156 -27 389 -34 l152 -5 -12 25 -12 26 -180 0 c-99 0
-198 5 -220 11 -22 6 -58 13 -80 15 -64 7 -145 36 -147 54 -3 37 5 76 18 83 8
4 14 12 14 18 0 5 11 27 25 49 14 22 25 46 25 54 0 7 7 19 15 26 8 7 15 19 15
27 0 8 7 21 15 29 8 9 15 25 15 38 0 12 4 26 10 32 21 21 33 116 37 284 2 98
0 190 -6 210 -10 38 -29 154 -37 235 -3 28 -12 64 -20 82 -8 17 -14 46 -14 65
0 18 -7 46 -15 62 -8 15 -15 48 -15 72 0 24 -4 44 -9 44 -5 0 -13 25 -16 55
-4 30 -11 58 -16 61 -5 3 -9 22 -9 43 0 20 -7 46 -15 57 -8 10 -15 35 -15 54
0 19 -7 46 -15 60 -8 14 -14 44 -15 68 0 23 -4 42 -9 42 -5 0 -13 25 -16 55
-4 30 -11 55 -16 55 -5 0 -9 20 -9 44 0 26 -6 51 -15 60 -8 8 -15 30 -15 49 0
19 -7 51 -15 70 -8 20 -15 52 -15 71 0 19 -4 37 -9 40 -5 3 -12 35 -16 71 -3
36 -11 65 -16 65 -5 0 -9 24 -9 53 0 31 -6 61 -15 73 -8 10 -15 41 -15 67 0
27 -5 58 -12 70 -7 12 -16 51 -19 87 -10 91 -34 242 -42 260 -14 36 -30 282
-30 475 0 212 16 447 32 476 5 8 12 50 16 92 4 43 11 80 16 83 5 3 9 27 9 53
0 27 7 65 15 84 8 20 15 57 15 82 0 26 5 56 11 67 7 12 15 47 20 77 4 31 13
77 20 104 10 39 16 47 36 47 13 0 23 -4 23 -10 0 -5 6 -10 14 -10 8 0 16 -7
20 -15 3 -8 15 -15 26 -15 11 0 20 -7 20 -15 0 -10 10 -15 28 -15 15 0 33 -5
40 -12 17 -17 202 -17 235 1 31 17 37 58 10 68 -27 10 -118 66 -121 75 -2 4
-12 8 -23 8 -11 0 -22 7 -25 15 -4 8 -10 15 -15 15 -17 0 -49 35 -49 53 0 20
61 87 79 87 6 0 11 6 11 13 0 7 11 21 25 31 18 13 25 28 25 51 0 45 -33 65
-107 65 -48 0 -63 -4 -86 -25 -31 -29 -34 -50 -12 -91 22 -43 11 -66 -62 -124
-7 -6 -15 -10 -18 -10 -3 0 -14 -9 -25 -20 -11 -11 -24 -20 -29 -20 -5 0 -13
9 -16 20 -3 11 -10 20 -15 20 -4 0 -11 11 -14 25 -4 14 -11 25 -16 25 -6 0
-10 10 -10 23 0 12 -7 31 -15 41 -8 11 -15 32 -15 46 0 14 -6 32 -12 38 -10
10 -13 61 -13 187 0 126 3 177 13 186 6 7 12 26 12 41 0 15 4 28 10 28 5 0 12
11 16 24 3 14 12 27 20 30 8 3 14 12 14 20 0 17 32 79 43 84 10 5 9 160 -2
167 -5 3 -13 30 -16 60 -4 31 -11 58 -16 61 -12 7 -12 311 0 318 5 4 12 29 16
56 4 27 11 52 16 56 5 3 9 18 9 34 0 16 7 35 15 44 8 8 15 23 15 34 0 11 7 25
15 32 8 7 15 19 15 26 0 8 11 32 25 54 14 22 25 44 25 50 0 5 6 10 14 10 8 0
16 5 18 12 5 15 43 -22 53 -51 3 -12 11 -21 16 -21 5 0 9 -12 9 -27 0 -16 7
-37 15 -47 8 -11 15 -29 15 -40 0 -12 7 -30 15 -40 8 -11 15 -34 15 -52 0 -18
4 -35 9 -38 5 -3 12 -31 16 -61 3 -30 11 -55 16 -55 5 0 9 -25 9 -57 0 -31 7
-80 16 -109 17 -51 14 -84 -6 -84 -5 0 -10 7 -10 15 0 8 -4 15 -10 15 -5 0
-12 11 -16 25 -3 14 -10 25 -15 25 -5 0 -9 12 -9 26 0 14 -7 32 -15 40 -8 9
-15 27 -15 42 0 15 -7 36 -15 46 -8 11 -15 39 -15 62 0 24 -4 46 -10 49 -5 3
-10 17 -10 31 0 33 -37 136 -52 146 -33 21 -88 -11 -88 -51 0 -10 -7 -24 -15
-31 -8 -7 -15 -27 -15 -45 0 -18 -6 -38 -14 -44 -8 -7 -16 -33 -19 -59 -3 -26
-10 -69 -16 -97 -15 -74 -14 -232 2 -242 7 -4 18 -20 24 -35 7 -15 25 -35 40
-45 15 -10 30 -20 33 -24 3 -3 17 -9 33 -13 15 -3 27 -11 27 -16 0 -6 30 -10
66 -10 70 0 112 16 149 58 24 25 42 27 69 7 11 -8 32 -15 46 -15 14 0 31 -5
37 -11 20 -20 261 6 287 32 6 5 20 9 33 9 13 0 26 7 29 15 4 8 15 15 25 15 11
0 22 7 25 15 4 8 11 15 16 15 6 0 21 11 34 25 13 14 27 25 31 26 4 0 28 25 53
54 25 29 51 54 58 54 6 1 12 6 12 11 0 14 158 170 203 200 20 14 37 28 37 33
0 4 18 7 41 7 66 0 70 -10 70 -170 -1 -77 -5 -148 -10 -158 -10 -18 -30 -111
-38 -174 -3 -21 -11 -42 -19 -49 -8 -6 -14 -23 -14 -38 0 -14 -7 -35 -15 -45
-8 -11 -15 -32 -15 -48 0 -15 -4 -28 -9 -28 -5 0 -12 -13 -16 -30 -4 -16 -13
-30 -21 -30 -8 0 -14 -7 -14 -16 0 -8 -5 -12 -10 -9 -7 4 -8 11 -2 18 6 7 13
36 17 65 4 28 10 52 14 52 8 0 27 88 39 180 4 30 13 65 20 77 7 12 12 48 13
80 0 32 4 81 9 108 11 65 -4 105 -40 105 -18 -1 -53 -27 -120 -91 -52 -50
-126 -119 -163 -155 -120 -114 -158 -198 -136 -303 13 -66 35 -120 58 -142 9
-9 34 -37 56 -63 22 -25 47 -46 56 -46 8 0 19 -4 25 -9 5 -5 20 -11 34 -13 23
-3 25 -7 22 -43 -2 -22 -8 -41 -13 -43 -5 -2 -9 -20 -9 -40 0 -20 -7 -50 -15
-66 -8 -15 -15 -48 -15 -72 0 -24 -4 -44 -9 -44 -5 0 -12 -28 -16 -62 -4 -35
-12 -69 -19 -77 -15 -19 -15 -369 0 -379 6 -4 14 -28 18 -54 4 -26 11 -50 17
-53 5 -4 9 -15 9 -25 0 -10 7 -25 15 -34 8 -8 15 -20 15 -26 0 -17 114 -181
155 -223 19 -20 35 -38 35 -41 0 -9 201 -206 210 -206 6 0 10 -7 10 -15 0 -8
7 -15 15 -15 8 0 15 -7 15 -15 0 -8 4 -15 10 -15 24 0 510 -486 510 -509 0 -6
7 -11 15 -11 8 0 15 -7 15 -15 0 -8 3 -15 8 -15 4 0 18 -18 32 -40 13 -22 28
-40 32 -40 4 0 8 -7 8 -15 0 -8 6 -15 14 -15 7 0 16 -8 20 -17 6 -19 27 -55
37 -63 4 -3 9 -14 13 -25 3 -11 17 -32 31 -47 14 -15 25 -34 25 -43 0 -9 7
-23 15 -31 8 -9 15 -24 15 -35 0 -10 4 -19 9 -19 5 0 20 -29 33 -65 12 -36 26
-65 30 -65 5 0 8 -13 8 -28 0 -16 7 -37 15 -48 8 -10 15 -36 15 -56 0 -21 4
-38 9 -38 5 0 11 -23 15 -51 4 -28 11 -58 16 -67 36 -70 44 -506 15 -832 -20
-227 -30 -646 -17 -675 6 -11 14 -47 20 -80 18 -102 29 -146 41 -158 6 -6 11
-21 11 -34 0 -13 4 -23 9 -23 5 0 12 -12 15 -26 4 -14 18 -38 31 -52 14 -15
25 -33 25 -40 0 -7 7 -15 15 -18 8 -4 15 -10 15 -14 0 -12 119 -130 131 -130
5 0 9 -4 9 -9 0 -5 10 -13 23 -17 12 -4 31 -17 43 -29 11 -13 31 -26 42 -30
12 -3 22 -10 22 -14 0 -4 -107 -15 -237 -25 -196 -15 -252 -16 -318 -6 -44 6
-98 14 -120 16 -83 10 -115 25 -131 62 -8 19 -14 43 -14 54 0 10 -7 21 -15 24
-8 4 -15 16 -15 28 0 12 -5 27 -10 32 -13 13 -59 93 -67 117 -3 9 -10 17 -15
17 -5 0 -24 16 -41 36 -67 76 -137 77 -137 2 0 -20 5 -40 10 -43 6 -3 10 -14
10 -24 0 -10 7 -24 15 -31 8 -7 15 -21 15 -31 0 -11 5 -19 10 -19 6 0 14 -8
18 -17 14 -36 57 -93 70 -93 6 0 12 -7 12 -15 0 -8 4 -15 10 -15 9 0 29 -16
101 -82 25 -23 29 -33 29 -82 0 -30 5 -58 10 -61 6 -3 10 -28 10 -55 0 -27 -4
-52 -10 -55 -5 -3 -10 -17 -10 -30 0 -13 -7 -30 -15 -39 -8 -8 -15 -19 -15
-25 0 -6 -8 -11 -19 -11 -10 0 -24 -6 -30 -14 -11 -12 -100 -27 -176 -28 -109
-1 -366 19 -377 30 -7 7 -41 12 -85 12 -43 0 -89 6 -110 15 -19 8 -53 15 -74
15 -21 0 -40 4 -43 9 -3 5 -22 12 -41 15 -19 4 -35 11 -35 16 0 6 -7 10 -15
10 -10 0 -15 10 -15 28 0 31 44 66 104 83 20 5 36 14 36 19 0 6 15 10 34 10
18 0 50 7 69 15 47 20 87 20 87 0 0 -8 6 -15 14 -15 8 0 16 -7 20 -15 3 -8 15
-15 26 -15 11 0 20 -4 20 -9 0 -5 13 -12 30 -16 16 -4 32 -11 35 -16 4 -5 39
-9 80 -9 105 0 153 31 138 90 -3 11 -12 20 -19 20 -8 0 -14 4 -14 10 0 5 -23
12 -50 16 -28 4 -53 11 -56 15 -3 5 -54 9 -114 9 l-109 0 -28 38 c-15 20 -34
41 -40 45 -7 4 -13 17 -13 28 0 11 -7 22 -15 25 -8 4 -15 17 -15 30 0 13 -4
24 -10 24 -5 0 -10 5 -10 11 0 10 -26 71 -51 121 -5 10 -9 28 -9 40 0 13 -7
32 -15 42 -8 11 -15 37 -15 58 0 21 -4 38 -10 38 -5 0 -10 10 -10 23 0 12 -7
50 -16 82 -33 123 -36 403 -4 413 5 2 10 10 10 18 0 19 40 94 51 94 5 0 9 4 9
10 0 13 32 50 43 50 5 0 15 6 22 13 35 31 45 37 60 37 8 0 15 7 15 15 0 9 9
15 24 15 13 0 26 7 30 15 3 8 18 15 34 15 15 0 32 4 38 10 5 5 45 15 88 21
110 15 194 0 258 -47 55 -41 128 -121 128 -140 0 -8 7 -14 15 -14 8 0 15 -5
15 -11 0 -16 26 -39 44 -39 19 0 21 23 4 42 -19 20 -38 50 -44 71 -4 9 -13 17
-20 17 -8 0 -14 4 -14 10 0 15 -84 97 -108 104 -12 4 -22 12 -22 17 0 5 -8 9
-18 9 -10 0 -27 7 -38 15 -28 21 -239 21 -260 0 -9 -8 -26 -15 -40 -15 -13 0
-32 -4 -42 -9 -9 -5 -47 -24 -84 -41 -36 -17 -69 -37 -72 -45 -3 -8 -10 -15
-17 -15 -13 0 -99 -87 -99 -100 0 -6 -4 -10 -10 -10 -5 0 -12 -11 -16 -25 -3
-14 -10 -25 -15 -25 -5 0 -9 -13 -9 -28 0 -16 -7 -37 -15 -48 -21 -28 -21
-287 0 -337 8 -20 15 -55 15 -77 0 -22 4 -48 9 -58 8 -16 13 -33 43 -149 6
-24 15 -43 20 -43 4 0 8 -12 8 -27 0 -16 7 -37 15 -47 8 -11 15 -30 15 -43 0
-13 4 -23 9 -23 5 0 12 -13 16 -30 4 -16 10 -30 15 -30 5 0 12 -10 16 -22 3
-12 22 -45 40 -74 19 -29 34 -55 34 -58 0 -2 -25 -8 -55 -11 -30 -4 -55 -11
-55 -16 0 -5 -16 -9 -35 -9 -22 0 -38 -6 -41 -15 -4 -8 -16 -15 -29 -15 -13 0
-25 -7 -29 -15 -3 -8 -12 -15 -20 -15 -21 0 -66 -58 -66 -85 0 -27 46 -75 70
-75 9 0 25 -7 36 -15 10 -8 33 -15 49 -15 17 0 37 -6 43 -12 7 -7 43 -16 80
-20 37 -4 119 -15 182 -24 63 -9 205 -18 315 -21 173 -4 207 -2 253 13 28 10
52 22 52 26 0 4 7 8 15 8 8 0 15 5 15 10 0 6 12 22 27 36 l28 26 -2 144 c-2
131 -1 144 15 144 10 0 24 -6 30 -12 17 -17 431 -23 644 -10 154 10 238 3 238
-19 0 -5 8 -9 18 -9 10 0 27 -7 38 -15 10 -8 28 -15 40 -15 11 0 29 -7 40 -15
10 -8 31 -15 45 -15 15 0 32 -7 39 -15 7 -9 29 -15 51 -15 22 0 39 -4 39 -9 0
-5 25 -12 55 -16 30 -3 55 -11 55 -16 0 -5 24 -9 54 -9 29 0 70 -7 89 -15 20
-8 65 -15 99 -15 35 0 95 -5 133 -11 104 -15 324 -13 341 4 4 4 42 7 85 7 43
0 90 5 106 12 15 6 51 15 78 19 72 11 145 32 145 41 0 5 11 8 25 8 14 0 28 7
31 15 4 8 11 15 16 15 17 0 37 33 38 58 0 26 -21 52 -42 52 -7 0 -22 6 -33 14
-11 7 -47 16 -80 19 -33 4 -98 11 -145 17 -182 22 -1241 10 -1376 -16 -18 -3
-34 -1 -38 5 -4 6 -15 11 -24 11 -10 0 -25 9 -35 20 -9 11 -24 20 -32 20 -8 0
-15 4 -15 9 0 5 -8 11 -17 15 -25 8 -52 26 -84 56 -14 14 -39 37 -55 51 -46
42 -114 118 -114 128 0 5 -7 11 -15 15 -8 3 -15 15 -15 26 0 11 -4 20 -9 20
-5 0 -12 14 -16 30 -4 17 -10 30 -15 30 -4 0 -11 18 -15 40 -4 22 -11 40 -16
40 -5 0 -9 17 -9 39 0 21 -7 55 -15 74 -20 48 -22 585 -3 620 35 63 37 851 2
901 -8 11 -14 42 -14 68 0 26 -4 49 -9 52 -5 3 -12 31 -16 61 -3 30 -11 55
-16 55 -5 0 -12 18 -15 40 -4 22 -11 43 -15 46 -5 3 -9 14 -9 24 0 10 -6 31
-14 47 -8 15 -29 57 -46 93 -51 105 -84 163 -108 190 -12 14 -25 33 -28 43 -3
9 -10 17 -15 17 -5 0 -9 5 -9 10 0 11 -10 24 -42 61 -10 10 -18 22 -18 25 0 4
-11 17 -25 30 -14 13 -25 26 -25 29 0 8 -18 30 -67 80 -24 24 -43 46 -43 49 0
10 -39 46 -50 46 -5 0 -10 7 -10 15 0 8 -5 15 -11 15 -11 0 -39 24 -39 34 0
10 -39 46 -50 46 -5 0 -10 7 -10 15 0 8 -5 15 -11 15 -11 0 -39 24 -39 34 0 7
-38 46 -44 46 -2 0 -31 26 -63 58 -76 73 -153 142 -159 142 -9 0 -64 61 -64
70 0 6 -4 10 -10 10 -12 0 -100 88 -100 100 0 6 -7 10 -15 10 -8 0 -15 5 -15
11 0 6 -6 16 -12 24 -7 7 -26 30 -43 50 -16 21 -34 43 -40 49 -13 15 -33 47
-42 66 -4 8 -13 21 -20 28 -7 7 -13 20 -13 28 0 8 -4 14 -9 14 -5 0 -12 14
-16 30 -4 17 -11 30 -16 30 -5 0 -9 11 -9 25 0 15 -6 38 -14 53 -13 27 -29
143 -29 217 0 87 16 221 29 242 8 12 14 42 14 67 0 25 4 47 9 50 5 3 12 31 16
61 3 30 10 55 15 55 4 0 11 25 15 55 3 30 11 55 16 55 5 0 9 18 9 40 0 29 4
40 15 40 8 0 15 5 15 10 0 6 11 21 24 33 13 12 34 41 46 65 12 23 26 45 31 48
5 3 9 14 9 24 0 10 7 25 15 34 8 8 15 24 15 35 0 12 4 29 9 39 6 9 17 44 26
77 9 33 22 81 30 106 8 26 15 65 15 87 0 22 7 53 15 68 21 40 21 222 0 250 -8
10 -15 26 -15 34 0 27 -38 50 -80 50 -39 0 -70 -12 -98 -37 -7 -7 -18 -13 -23
-13 -13 0 -239 -226 -239 -239 0 -6 -7 -11 -15 -11 -8 0 -15 -5 -15 -11 0 -11
-24 -39 -34 -39 -10 0 -46 -39 -46 -50 0 -5 -7 -10 -15 -10 -8 0 -15 -4 -15
-10 0 -5 -11 -12 -25 -16 -14 -3 -25 -10 -25 -15 0 -5 -8 -9 -19 -9 -10 0 -24
-7 -31 -15 -7 -8 -23 -15 -37 -15 -13 0 -31 -7 -39 -15 -12 -12 -42 -15 -135
-15 -97 0 -121 3 -125 15 -4 8 -18 15 -31 15 -44 0 -52 24 -53 148 0 77 -5
124 -14 145 -8 18 -17 50 -19 72 -2 22 -9 54 -15 70 -6 17 -18 57 -27 90 -9
33 -20 68 -26 77 -5 10 -9 23 -9 29 0 17 -44 109 -52 109 -5 0 -8 4 -8 10 0 5
-8 19 -17 30 -27 31 -86 27 -118 -7z m55 -262 c0 -22 5 -41 11 -43 5 -2 14
-28 19 -58 12 -73 33 -157 43 -166 4 -4 7 -22 7 -40 0 -19 6 -34 15 -38 8 -3
15 -15 15 -26 0 -11 7 -23 15 -26 8 -4 15 -15 15 -26 0 -10 11 -29 25 -42 57
-53 13 -106 -88 -106 -31 0 -67 4 -81 10 -31 11 -106 85 -106 104 0 7 -6 31
-14 53 -12 34 -12 49 0 99 7 32 14 80 14 107 0 26 4 47 10 47 5 0 12 12 15 28
10 48 40 137 50 149 20 25 35 14 35 -26z m1208 -288 c-8 -85 -29 -208 -38
-224 -5 -9 -12 -44 -16 -78 -3 -33 -11 -61 -15 -61 -5 0 -9 -17 -9 -37 0 -21
-7 -51 -15 -67 -8 -15 -15 -46 -15 -67 0 -21 -4 -40 -9 -43 -4 -3 -11 -24 -15
-46 -6 -40 -6 -40 -51 -40 -31 0 -47 5 -51 15 -4 8 -10 15 -16 15 -15 0 -78
74 -78 93 0 9 -4 17 -9 17 -15 0 -41 84 -41 132 0 39 20 98 40 118 3 3 21 25
40 50 19 25 43 52 55 60 11 8 35 29 53 47 18 18 36 33 40 34 4 0 34 29 67 64
74 79 89 82 83 18z m-1068 -1092 c0 -20 -89 -93 -102 -85 -5 3 -8 27 -8 55 l0
49 55 0 c47 0 55 -3 55 -19z m-140 -194 c1 -7 8 -21 18 -32 23 -27 152 -112
177 -117 11 -2 20 -10 20 -18 0 -12 -15 -14 -90 -12 -77 3 -97 8 -143 34 -61
33 -92 62 -92 82 0 8 17 25 38 37 20 13 41 29 45 36 9 15 27 8 27 -10z m1900
-4264 c0 -7 4 -13 10 -13 10 0 50 -80 50 -99 0 -6 5 -11 10 -11 6 0 10 -13 10
-30 0 -16 -2 -30 -5 -30 -6 0 -45 38 -45 45 0 2 -13 18 -30 35 -16 17 -30 37
-30 45 0 8 -4 15 -8 15 -15 0 -75 127 -69 144 6 14 16 8 57 -35 27 -29 50 -58
50 -66z m2298 -273 c37 -6 121 -15 187 -19 136 -10 226 -27 237 -44 15 -23 8
-37 -17 -37 -14 0 -28 -7 -31 -15 -4 -8 -16 -15 -28 -15 -11 0 -30 -7 -40 -15
-11 -8 -36 -15 -56 -15 -20 0 -40 -3 -44 -7 -37 -38 -586 -51 -776 -20 -58 10
-127 21 -155 25 -27 5 -60 13 -72 20 -12 7 -37 12 -56 12 -19 0 -40 7 -47 15
-7 8 -28 15 -46 15 -19 0 -34 5 -34 10 0 6 -10 10 -23 10 -12 0 -39 9 -60 20
-20 11 -44 20 -53 20 -8 0 -13 4 -10 8 3 5 83 12 178 16 95 5 196 11 223 16
76 11 647 11 723 0z m-2603 -117 c19 -9 35 -23 35 -30 0 -20 -163 -18 -184 2
-8 8 -21 15 -30 15 -17 0 -29 14 -19 24 14 14 163 6 198 -11z"/>
<path d="M17700 14820 c-95 -98 -140 -235 -140 -429 0 -212 42 -419 132 -651
23 -58 101 -223 174 -367 130 -257 133 -263 118 -291 -20 -42 -2 -83 23 -49 5
6 103 212 218 457 309 661 402 903 412 1081 4 66 2 102 -7 118 -11 22 -17 23
-80 19 -124 -9 -268 -95 -356 -212 -25 -33 -71 -111 -101 -174 -31 -62 -57
-111 -59 -109 -2 2 -22 91 -44 198 -49 240 -53 256 -101 351 -63 126 -109 140
-189 58z m113 5 c15 -14 34 -40 43 -57 39 -75 110 -393 148 -663 37 -253 44
-289 61 -275 10 8 13 48 12 163 -1 218 32 334 137 475 80 108 245 212 337 212
44 0 47 -2 53 -31 12 -62 5 -102 -49 -275 -63 -199 -117 -328 -322 -774 -148
-322 -198 -420 -213 -420 -13 0 -99 148 -175 300 -175 350 -263 677 -253 939
6 134 28 219 85 321 21 39 88 109 103 110 3 0 17 -11 33 -25z"/>
<path d="M16979 11337 c-40 -30 -41 -45 -30 -377 18 -534 11 -1523 -15 -2306
l-7 -202 26 -26 c20 -20 36 -26 70 -26 47 0 68 15 85 60 6 16 6 208 1 510 -5
310 -4 785 4 1315 16 1126 19 1001 -21 1036 -35 31 -84 38 -113 16z"/>
<path d="M8812 11310 c-12 -11 -25 -32 -28 -45 -3 -13 0 -116 8 -227 10 -152
13 -504 13 -1410 l0 -1207 22 -22 c18 -18 32 -22 92 -21 94 0 158 16 259 63
147 68 296 192 381 317 200 296 212 717 25 882 -94 82 -249 98 -373 37 -62
-30 -179 -148 -219 -222 l-32 -60 1 938 c2 924 2 939 -18 965 -27 36 -97 43
-131 12z m623 -1789 c49 -22 68 -43 97 -106 20 -43 23 -65 22 -165 -1 -139
-20 -224 -74 -335 -74 -150 -195 -269 -356 -351 -39 -20 -92 -38 -117 -41
l-45 -5 -6 178 c-9 227 5 440 34 516 31 83 88 166 160 230 100 91 199 118 285
79z"/>
<path d="M15227 11124 c-151 -36 -286 -146 -353 -287 -108 -229 -71 -556 90
-781 58 -81 138 -162 336 -337 216 -192 290 -282 345 -418 91 -223 62 -520
-66 -665 -135 -155 -403 -155 -539 0 -69 80 -104 194 -115 378 -6 113 -18 146
-58 160 -42 15 -79 -3 -102 -49 -17 -34 -20 -59 -20 -175 1 -120 4 -142 27
-202 92 -241 284 -387 508 -388 281 0 492 169 566 455 14 53 18 107 18 225 0
139 -3 164 -27 243 -59 193 -131 287 -395 520 -212 187 -284 261 -336 342 -73
113 -106 212 -115 345 -12 185 22 303 112 394 57 56 108 82 186 95 186 30 343
-77 371 -253 5 -33 3 -89 -6 -160 -20 -146 -4 -186 73 -186 74 0 103 59 103
207 0 141 -13 211 -57 303 -95 198 -311 291 -546 234z"/>
<path d="M7085 11084 c-200 -30 -327 -64 -364 -98 l-24 -21 7 -190 c3 -104 11
-293 16 -420 8 -161 7 -476 0 -1051 -13 -927 -17 -872 61 -895 102 -31 416 67
589 184 182 123 322 290 394 469 43 109 59 207 54 333 -7 149 -30 209 -112
290 -95 94 -220 142 -381 147 -41 1 -74 2 -72 4 1 1 48 36 103 77 190 141 309
270 379 412 115 231 96 507 -43 642 -116 113 -346 157 -607 117z m293 -134
c336 -63 365 -466 58 -806 -144 -158 -354 -301 -513 -348 l-53 -15 1 492 c1
271 4 521 8 557 l6 64 67 23 c36 13 90 27 120 32 73 12 245 13 306 1z m14
-1276 c114 -27 207 -95 249 -182 20 -40 23 -63 24 -152 0 -165 -46 -289 -159
-428 -91 -113 -257 -230 -406 -285 -65 -25 -206 -54 -215 -45 -2 2 -6 238 -7
524 l-3 519 79 28 c132 46 303 54 438 21z"/>
<path d="M8255 10249 c-43 -12 -92 -63 -99 -104 -22 -113 80 -202 188 -164 75
26 115 125 79 196 -31 63 -99 92 -168 72z"/>
<path d="M10125 10249 c-43 -12 -92 -63 -99 -104 -22 -113 80 -202 188 -164
75 26 115 125 79 196 -31 63 -99 92 -168 72z"/>
<path d="M16345 10249 c-43 -12 -92 -63 -99 -104 -22 -113 80 -202 188 -164
75 26 115 125 79 196 -31 63 -99 92 -168 72z"/>
<path d="M10999 9700 c-194 -35 -357 -214 -334 -367 8 -57 34 -83 83 -83 58 0
78 20 86 85 8 72 25 112 67 160 44 50 100 75 170 75 76 0 130 -38 167 -118 24
-52 27 -70 30 -198 l4 -142 -54 15 c-76 20 -234 12 -318 -16 -128 -44 -224
-124 -273 -229 -30 -62 -32 -75 -32 -172 0 -123 17 -172 84 -239 52 -52 103
-78 180 -90 127 -20 239 20 351 125 l68 64 4 -65 c5 -86 29 -119 87 -123 90
-7 109 36 71 156 -18 59 -20 92 -20 412 0 192 -5 384 -11 427 -12 89 -50 181
-98 236 -64 73 -193 109 -312 87z m249 -716 c21 -6 22 -11 22 -123 l0 -116
-45 -57 c-92 -118 -193 -175 -290 -165 -140 14 -212 127 -172 268 28 95 114
171 224 199 40 10 221 6 261 -6z"/>
<path d="M13399 9700 c-194 -35 -357 -214 -334 -367 8 -57 34 -83 83 -83 58 0
78 20 86 85 8 72 25 112 67 160 44 50 100 75 170 75 76 0 130 -38 167 -118 24
-52 27 -70 30 -198 l4 -142 -54 15 c-76 20 -234 12 -318 -16 -128 -44 -224
-124 -273 -229 -30 -62 -32 -75 -32 -172 0 -123 17 -172 84 -239 52 -52 103
-78 180 -90 127 -20 239 20 351 125 l68 64 4 -65 c5 -86 29 -119 87 -123 90
-7 109 36 71 156 -18 59 -20 92 -20 412 0 192 -5 384 -11 427 -12 89 -50 181
-98 236 -64 73 -193 109 -312 87z m249 -716 c21 -6 22 -11 22 -123 l0 -116
-45 -57 c-92 -118 -193 -175 -290 -165 -140 14 -212 127 -172 268 28 95 114
171 224 199 40 10 221 6 261 -6z"/>
<path d="M18969 9700 c-194 -35 -357 -214 -334 -367 8 -57 34 -83 83 -83 58 0
78 20 86 85 8 72 25 112 67 160 44 50 100 75 170 75 76 0 130 -38 167 -118 24
-52 27 -70 30 -198 l4 -142 -54 15 c-76 20 -234 12 -318 -16 -128 -44 -224
-124 -273 -229 -30 -62 -32 -75 -32 -172 0 -123 17 -172 84 -239 52 -52 103
-78 180 -90 127 -20 239 20 351 125 l68 64 4 -65 c5 -86 29 -119 87 -123 90
-7 109 36 71 156 -18 59 -20 92 -20 412 0 192 -5 384 -11 427 -12 89 -50 181
-98 236 -64 73 -193 109 -312 87z m249 -716 c21 -6 22 -11 22 -123 l0 -116
-45 -57 c-92 -118 -193 -175 -290 -165 -140 14 -212 127 -172 268 28 95 114
171 224 199 40 10 221 6 261 -6z"/>
<path d="M12263 9661 c-81 -28 -158 -85 -209 -154 -25 -34 -48 -64 -51 -67 -3
-3 -3 33 -1 80 5 85 -3 128 -25 142 -25 16 -96 9 -117 -12 -11 -11 -20 -23
-20 -27 0 -5 -2 -267 -3 -583 -2 -566 -2 -575 18 -598 29 -34 100 -36 127 -3
18 23 18 39 12 360 l-7 336 27 78 c62 182 191 306 321 307 88 0 136 -50 166
-177 15 -62 16 -564 1 -731 -7 -79 -8 -132 -2 -148 13 -33 64 -54 104 -43 66
19 64 3 60 476 -2 236 -6 446 -9 468 -37 239 -200 363 -392 296z"/>
<path d="M17459 9651 c-48 -48 -45 -64 65 -336 32 -77 111 -306 176 -509 66
-203 126 -376 134 -384 22 -22 101 -20 126 3 11 10 33 62 51 119 59 193 192
592 266 796 83 229 92 280 54 311 -14 11 -39 19 -63 19 -65 0 -81 -27 -123
-208 -42 -177 -109 -414 -189 -672 l-54 -174 -20 69 c-12 39 -66 232 -122 430
-146 522 -148 527 -207 551 -47 20 -61 18 -94 -15z"/>
<path d="M8214 9618 l-27 -33 7 -150 c8 -197 8 -594 0 -815 l-7 -176 28 -22
c42 -33 104 -25 130 17 6 10 10 157 10 386 0 204 4 461 9 573 l9 202 -23 25
c-18 19 -34 25 -66 25 -35 0 -47 -5 -70 -32z"/>
<path d="M10084 9618 l-27 -33 7 -150 c8 -197 8 -594 0 -815 l-7 -176 28 -22
c42 -33 104 -25 130 17 6 10 10 157 10 386 0 204 4 461 9 573 l9 202 -23 25
c-18 19 -34 25 -66 25 -35 0 -47 -5 -70 -32z"/>
<path d="M16304 9618 l-27 -33 7 -150 c8 -197 8 -594 0 -815 l-7 -176 28 -22
c42 -33 104 -25 130 17 6 10 10 157 10 386 0 204 4 461 9 573 l9 202 -23 25
c-18 19 -34 25 -66 25 -35 0 -47 -5 -70 -32z"/>
<path d="M9810 7455 c-44 -55 -50 -68 -39 -81 17 -21 27 -16 86 47 l53 56 -24
22 -23 22 -53 -66z"/>
<path d="M15706 7454 c-44 -61 -47 -67 -32 -82 15 -15 21 -12 71 38 30 30 55
59 55 66 0 10 -32 44 -41 44 -2 -1 -26 -30 -53 -66z"/>
<path d="M8920 7030 l0 -310 30 0 30 0 0 210 c0 116 3 210 8 210 4 -1 50 -61
102 -135 53 -76 101 -135 110 -135 8 1 59 64 113 142 l97 142 0 -217 0 -217
35 0 35 0 0 311 c0 244 -3 310 -12 307 -7 -3 -69 -86 -138 -186 -69 -99 -127
-181 -130 -181 -3 0 -63 83 -133 184 -71 102 -133 185 -138 185 -5 0 -9 -131
-9 -310z"/>
<path d="M11692 7288 c-106 -284 -202 -548 -202 -557 0 -6 15 -11 34 -11 28 0
35 4 40 25 4 14 16 50 27 80 l20 55 109 0 108 0 28 -80 29 -80 37 0 38 0 -30
83 c-129 352 -198 531 -207 534 -6 2 -20 -20 -31 -49z m72 -228 c21 -61 36
-113 34 -116 -3 -3 -41 -4 -85 -2 l-79 3 40 113 c22 61 43 112 46 112 3 0 22
-50 44 -110z"/>
<path d="M14870 7030 l0 -310 30 0 30 0 2 226 3 226 195 -233 c107 -128 201
-235 208 -237 9 -3 12 63 12 308 l0 311 -32 -3 -33 -3 -5 -219 -5 -220 -194
232 c-107 128 -198 232 -203 232 -4 0 -8 -139 -8 -310z"/>
<path d="M15662 7288 c-106 -284 -202 -548 -202 -557 0 -6 15 -11 34 -11 28 0
35 4 40 25 4 14 16 50 27 80 l20 55 109 0 108 0 28 -80 29 -80 37 0 38 0 -30
83 c-129 352 -198 531 -207 534 -6 2 -20 -20 -31 -49z m72 -228 c21 -61 36
-113 34 -116 -3 -3 -41 -4 -85 -2 l-79 3 40 113 c22 61 43 112 46 112 3 0 22
-50 44 -110z"/>
<path d="M16902 7288 c-106 -284 -202 -548 -202 -557 0 -6 15 -11 34 -11 28 0
35 4 40 25 4 14 16 50 27 80 l20 55 109 0 108 0 28 -80 29 -80 37 0 38 0 -30
83 c-129 352 -198 531 -207 534 -6 2 -20 -20 -31 -49z m72 -228 c21 -61 36
-113 34 -116 -3 -3 -41 -4 -85 -2 l-79 3 40 113 c22 61 43 112 46 112 3 0 22
-50 44 -110z"/>
<path d="M11133 7320 c-164 -33 -265 -193 -233 -367 35 -182 219 -285 395
-221 38 14 114 70 115 84 0 6 -9 19 -19 28 -18 17 -21 16 -65 -18 -164 -125
-387 20 -359 232 3 23 20 66 37 95 24 40 43 58 85 80 86 43 166 34 249 -30
l34 -26 21 22 21 21 -28 29 c-54 56 -167 88 -253 71z"/>
<path d="M9640 7020 l0 -300 155 0 155 0 0 30 0 29 -122 3 -123 3 0 105 0 105
93 3 92 3 0 29 0 29 -92 3 -93 3 0 95 0 95 123 3 122 3 0 29 0 30 -155 0 -155
0 0 -300z"/>
<path d="M10080 7021 l0 -301 118 0 c206 0 298 43 364 170 19 37 23 60 23 130
0 73 -4 92 -27 137 -15 28 -47 67 -70 86 -73 58 -117 70 -270 75 l-138 4 0
-301z m237 228 c191 -33 265 -247 136 -390 -48 -53 -105 -72 -217 -73 l-91 -1
-3 225 c-1 123 0 230 2 237 7 16 86 17 173 2z"/>
<path d="M10710 7020 l0 -300 30 0 30 0 0 300 0 300 -30 0 -30 0 0 -300z"/>
<path d="M12200 7308 c0 -32 209 -603 220 -603 9 0 187 450 236 598 4 14 -1
17 -29 17 l-34 0 -83 -227 c-80 -217 -85 -225 -96 -197 -7 16 -43 118 -81 226
l-68 198 -32 0 c-20 0 -33 -5 -33 -12z"/>
<path d="M12770 7020 l0 -300 155 0 155 0 0 30 0 29 -122 3 -123 3 0 105 0
105 93 3 92 3 0 29 0 29 -92 3 -93 3 0 95 0 95 123 3 122 3 0 29 0 30 -155 0
-155 0 0 -300z"/>
<path d="M13150 7290 l0 -29 98 -3 97 -3 3 -268 2 -268 33 3 32 3 3 268 2 267
95 0 95 0 0 30 0 30 -230 0 -230 0 0 -30z"/>
<path d="M13710 7020 l0 -300 155 0 155 0 0 30 0 29 -122 3 -123 3 0 105 0
105 93 3 92 3 0 29 0 29 -92 3 -93 3 0 95 0 95 123 3 122 3 0 29 0 30 -155 0
-155 0 0 -300z"/>
<path d="M14160 7020 l0 -300 30 0 30 0 0 121 0 120 43 -3 c42 -3 43 -4 121
-120 78 -116 80 -118 118 -118 21 0 38 2 38 5 0 3 -36 60 -81 127 -62 93 -78
122 -68 129 8 5 19 9 25 9 18 0 62 53 79 94 26 62 13 121 -38 172 -51 51 -94
64 -209 64 l-88 0 0 -300z m215 218 c37 -19 55 -40 61 -75 15 -80 -47 -133
-156 -133 l-60 0 0 108 c0 60 3 112 8 116 9 10 120 -2 147 -16z"/>
<path d="M14650 7020 l0 -300 30 0 30 0 0 300 0 300 -30 0 -30 0 0 -300z"/>
<path d="M16030 7020 l0 -300 30 0 30 0 0 121 0 120 43 -3 c42 -3 43 -4 121
-120 78 -116 80 -118 118 -118 21 0 38 2 38 5 0 3 -36 60 -81 127 -62 93 -78
122 -68 129 8 5 19 9 25 9 18 0 62 53 79 94 26 62 13 121 -38 172 -51 51 -94
64 -209 64 l-88 0 0 -300z m215 218 c37 -19 55 -40 61 -75 15 -80 -47 -133
-156 -133 l-60 0 0 108 c0 60 3 112 8 116 9 10 120 -2 147 -16z"/>
<path d="M16530 7020 l0 -300 30 0 30 0 0 300 0 300 -30 0 -30 0 0 -300z"/>
</g>
</svg>
